<?xml version="1.0" standalone="no"?>
<svg width="567.429" height="544.6" viewBox="0 0 567.429 544.6" xmlns="http://www.w3.org/2000/svg" shape-rendering="crispEdges">
<title>
_updatedMuonStudies_7/cmsMatching_SingleMu_0_8_GENSIMDIGIRAW/heppy.analyzers.triggerrates.Histogrammer.Histogrammer_objectQualityDistribution/objectQualityDistribution.svg
</title>
<desc>
Creator: ROOT Version 6.18/04
CreationDate: Tue Feb 11 14:40:04 2020</desc>
<defs>
</defs>
<rect x="0.5" y="0" width="566.929" height="544.1" fill="white"/>
<rect x="57.1929" y="54.41" width="453.543" height="435.28" fill="white"/>
<rect x="57.1929" y="54.41" width="453.543" height="435.28" fill="none" stroke="black"/>
<rect x="57.1929" y="54.41" width="453.543" height="435.28" fill="white"/>
<rect x="57.1929" y="54.41" width="453.543" height="435.28" fill="none" stroke="black"/>
<path d="M57.1929,489.69h 453.543" fill="none" stroke="black"/>
<path d="M57.1929,54.41v 435.28" fill="none" stroke="black" stroke-dasharray=" 1, 2"/>
<path d="M102.547,54.41v 435.28" fill="none" stroke="black" stroke-dasharray=" 1, 2"/>
<path d="M147.902,54.41v 435.28" fill="none" stroke="black" stroke-dasharray=" 1, 2"/>
<path d="M193.256,54.41v 435.28" fill="none" stroke="black" stroke-dasharray=" 1, 2"/>
<path d="M238.61,54.41v 435.28" fill="none" stroke="black" stroke-dasharray=" 1, 2"/>
<path d="M283.965,54.41v 435.28" fill="none" stroke="black" stroke-dasharray=" 1, 2"/>
<path d="M329.319,54.41v 435.28" fill="none" stroke="black" stroke-dasharray=" 1, 2"/>
<path d="M374.673,54.41v 435.28" fill="none" stroke="black" stroke-dasharray=" 1, 2"/>
<path d="M420.028,54.41v 435.28" fill="none" stroke="black" stroke-dasharray=" 1, 2"/>
<path d="M465.382,54.41v 435.28" fill="none" stroke="black" stroke-dasharray=" 1, 2"/>
<path d="M510.736,54.41v 435.28" fill="none" stroke="black" stroke-dasharray=" 1, 2"/>
<path d="M57.1929,489.69v -435.28" fill="none" stroke="black"/>
<path d="M510.736,489.69h -453.543" fill="none" stroke="black" stroke-dasharray=" 1, 2"/>
<path d="M510.736,429.214h -453.543" fill="none" stroke="black" stroke-dasharray=" 1, 2"/>
<path d="M510.736,368.738h -453.543" fill="none" stroke="black" stroke-dasharray=" 1, 2"/>
<path d="M510.736,308.262h -453.543" fill="none" stroke="black" stroke-dasharray=" 1, 2"/>
<path d="M510.736,247.787h -453.543" fill="none" stroke="black" stroke-dasharray=" 1, 2"/>
<path d="M510.736,187.311h -453.543" fill="none" stroke="black" stroke-dasharray=" 1, 2"/>
<path d="M510.736,126.835h -453.543" fill="none" stroke="black" stroke-dasharray=" 1, 2"/>
<path d="M510.736,66.3592h -453.543" fill="none" stroke="black" stroke-dasharray=" 1, 2"/>
<path d="M510.736,66.3592h -453.543" fill="none" stroke="black" stroke-dasharray=" 1, 2"/>
<path d="M238.61,462.369h 7.53369" fill="none" stroke="black"/>
<path d="M253.754,462.369h 7.53369" fill="none" stroke="black"/>
<g stroke="#0000ff" stroke-width="1" fill="#0000ff">
<rect x="246.144" y="458.564" width="7.60979" height="7.60979"/>
</g>
<path d="M329.319,75.638h 7.53369" fill="none" stroke="black"/>
<path d="M344.462,75.638h 7.53369" fill="none" stroke="black"/>
<g stroke="#0000ff" stroke-width="1" fill="#0000ff">
<rect x="336.853" y="71.8331" width="7.60979" height="7.60979"/>
</g>
<rect x="442.705" y="35.3665" width="113.386" height="87.056" fill="white"/>
<path d="M442.705,122.422h 113.386" fill="none" stroke="black"/>
<path d="M556.091,122.422v -87.056" fill="none" stroke="black"/>
<path d="M556.091,35.3665h -113.386" fill="none" stroke="black"/>
<path d="M442.705,35.3665v 87.056" fill="none" stroke="black"/>
<text xml:space="preserve" x="447.575" y="48.5124" fill="black" font-size="9.95648" font-family="Helvetica">objectQualityDistribution</text>
<path d="M442.705,57.1305h 113.386" fill="none" stroke="black"/>
<text xml:space="preserve" x="447.575" y="72.293" fill="black" font-size="12.2312" font-family="Helvetica">Entries </text>
<text xml:space="preserve" x="505.6" y="72.293" fill="black" font-size="12.2312" font-family="Helvetica"> 729833</text>
<text xml:space="preserve" x="447.575" y="94.1711" fill="black" font-size="12.2312" font-family="Helvetica">Mean  </text>
<text xml:space="preserve" x="512.258" y="94.1711" fill="black" font-size="12.2312" font-family="Helvetica">  11.75</text>
<text xml:space="preserve" x="447.575" y="116.049" fill="black" font-size="12.2312" font-family="Helvetica">Std Dev   </text>
<text xml:space="preserve" x="509.405" y="116.049" fill="black" font-size="12.2312" font-family="Helvetica"> 0.9639</text>
<path d="M57.1929,489.69h 453.543" fill="none" stroke="black"/>
<path d="M57.1929,476.631v 13.0584" fill="none" stroke="black"/>
<path d="M68.5315,483.161v 6.5292" fill="none" stroke="black"/>
<path d="M79.8701,483.161v 6.5292" fill="none" stroke="black"/>
<path d="M91.2087,483.161v 6.5292" fill="none" stroke="black"/>
<path d="M102.547,476.631v 13.0584" fill="none" stroke="black"/>
<path d="M113.886,483.161v 6.5292" fill="none" stroke="black"/>
<path d="M125.224,483.161v 6.5292" fill="none" stroke="black"/>
<path d="M136.563,483.161v 6.5292" fill="none" stroke="black"/>
<path d="M147.902,476.631v 13.0584" fill="none" stroke="black"/>
<path d="M159.24,483.161v 6.5292" fill="none" stroke="black"/>
<path d="M170.579,483.161v 6.5292" fill="none" stroke="black"/>
<path d="M181.917,483.161v 6.5292" fill="none" stroke="black"/>
<path d="M193.256,476.631v 13.0584" fill="none" stroke="black"/>
<path d="M204.594,483.161v 6.5292" fill="none" stroke="black"/>
<path d="M215.933,483.161v 6.5292" fill="none" stroke="black"/>
<path d="M227.272,483.161v 6.5292" fill="none" stroke="black"/>
<path d="M238.61,476.631v 13.0584" fill="none" stroke="black"/>
<path d="M249.949,483.161v 6.5292" fill="none" stroke="black"/>
<path d="M261.287,483.161v 6.5292" fill="none" stroke="black"/>
<path d="M272.626,483.161v 6.5292" fill="none" stroke="black"/>
<path d="M283.965,476.631v 13.0584" fill="none" stroke="black"/>
<path d="M295.303,483.161v 6.5292" fill="none" stroke="black"/>
<path d="M306.642,483.161v 6.5292" fill="none" stroke="black"/>
<path d="M317.98,483.161v 6.5292" fill="none" stroke="black"/>
<path d="M329.319,476.631v 13.0584" fill="none" stroke="black"/>
<path d="M340.657,483.161v 6.5292" fill="none" stroke="black"/>
<path d="M351.996,483.161v 6.5292" fill="none" stroke="black"/>
<path d="M363.335,483.161v 6.5292" fill="none" stroke="black"/>
<path d="M374.673,476.631v 13.0584" fill="none" stroke="black"/>
<path d="M386.012,483.161v 6.5292" fill="none" stroke="black"/>
<path d="M397.35,483.161v 6.5292" fill="none" stroke="black"/>
<path d="M408.689,483.161v 6.5292" fill="none" stroke="black"/>
<path d="M420.028,476.631v 13.0584" fill="none" stroke="black"/>
<path d="M431.366,483.161v 6.5292" fill="none" stroke="black"/>
<path d="M442.705,483.161v 6.5292" fill="none" stroke="black"/>
<path d="M454.043,483.161v 6.5292" fill="none" stroke="black"/>
<path d="M465.382,476.631v 13.0584" fill="none" stroke="black"/>
<path d="M476.72,483.161v 6.5292" fill="none" stroke="black"/>
<path d="M488.059,483.161v 6.5292" fill="none" stroke="black"/>
<path d="M499.398,483.161v 6.5292" fill="none" stroke="black"/>
<path d="M510.736,476.631v 13.0584" fill="none" stroke="black"/>
<text xml:space="preserve" x="51.8661" y="507.002" fill="black" font-size="17.9711" font-family="Helvetica">0</text>
<text xml:space="preserve" x="97.5248" y="507.002" fill="black" font-size="17.9711" font-family="Helvetica">2</text>
<text xml:space="preserve" x="142.232" y="507.002" fill="black" font-size="17.9711" font-family="Helvetica">4</text>
<text xml:space="preserve" x="187.891" y="507.002" fill="black" font-size="17.9711" font-family="Helvetica">6</text>
<text xml:space="preserve" x="233.55" y="507.002" fill="black" font-size="17.9711" font-family="Helvetica">8</text>
<text xml:space="preserve" x="273.501" y="507.002" fill="black" font-size="17.9711" font-family="Helvetica">10</text>
<text xml:space="preserve" x="318.209" y="507.002" fill="black" font-size="17.9711" font-family="Helvetica">12</text>
<text xml:space="preserve" x="363.867" y="507.002" fill="black" font-size="17.9711" font-family="Helvetica">14</text>
<text xml:space="preserve" x="409.526" y="507.002" fill="black" font-size="17.9711" font-family="Helvetica">16</text>
<text xml:space="preserve" x="454.234" y="507.002" fill="black" font-size="17.9711" font-family="Helvetica">18</text>
<text xml:space="preserve" x="499.892" y="507.002" fill="black" font-size="17.9711" font-family="Helvetica">20</text>
<text xml:space="preserve" x="458.99" y="523.173" fill="black" font-size="12.1474" font-family="Helvetica">L1T Muon</text>
<text xml:space="preserve" x="402.867" y="532.685" fill="black" font-size="17.9711" font-family="Helvetica">Quality</text>
<path d="M57.1929,489.69v -435.28" fill="none" stroke="black"/>
<path d="M70.7992,489.69h -13.6063" fill="none" stroke="black"/>
<path d="M63.9961,477.595h -6.80315" fill="none" stroke="black"/>
<path d="M63.9961,465.499h -6.80315" fill="none" stroke="black"/>
<path d="M63.9961,453.404h -6.80315" fill="none" stroke="black"/>
<path d="M63.9961,441.309h -6.80315" fill="none" stroke="black"/>
<path d="M70.7992,429.214h -13.6063" fill="none" stroke="black"/>
<path d="M63.9961,417.119h -6.80315" fill="none" stroke="black"/>
<path d="M63.9961,405.024h -6.80315" fill="none" stroke="black"/>
<path d="M63.9961,392.929h -6.80315" fill="none" stroke="black"/>
<path d="M63.9961,380.833h -6.80315" fill="none" stroke="black"/>
<path d="M70.7992,368.738h -13.6063" fill="none" stroke="black"/>
<path d="M63.9961,356.643h -6.80315" fill="none" stroke="black"/>
<path d="M63.9961,344.548h -6.80315" fill="none" stroke="black"/>
<path d="M63.9961,332.453h -6.80315" fill="none" stroke="black"/>
<path d="M63.9961,320.358h -6.80315" fill="none" stroke="black"/>
<path d="M70.7992,308.262h -13.6063" fill="none" stroke="black"/>
<path d="M63.9961,296.167h -6.80315" fill="none" stroke="black"/>
<path d="M63.9961,284.072h -6.80315" fill="none" stroke="black"/>
<path d="M63.9961,271.977h -6.80315" fill="none" stroke="black"/>
<path d="M63.9961,259.882h -6.80315" fill="none" stroke="black"/>
<path d="M70.7992,247.787h -13.6063" fill="none" stroke="black"/>
<path d="M63.9961,235.691h -6.80315" fill="none" stroke="black"/>
<path d="M63.9961,223.596h -6.80315" fill="none" stroke="black"/>
<path d="M63.9961,211.501h -6.80315" fill="none" stroke="black"/>
<path d="M63.9961,199.406h -6.80315" fill="none" stroke="black"/>
<path d="M70.7992,187.311h -13.6063" fill="none" stroke="black"/>
<path d="M63.9961,175.216h -6.80315" fill="none" stroke="black"/>
<path d="M63.9961,163.12h -6.80315" fill="none" stroke="black"/>
<path d="M63.9961,151.025h -6.80315" fill="none" stroke="black"/>
<path d="M63.9961,138.93h -6.80315" fill="none" stroke="black"/>
<path d="M70.7992,126.835h -13.6063" fill="none" stroke="black"/>
<path d="M63.9961,114.74h -6.80315" fill="none" stroke="black"/>
<path d="M63.9961,102.645h -6.80315" fill="none" stroke="black"/>
<path d="M63.9961,90.5495h -6.80315" fill="none" stroke="black"/>
<path d="M63.9961,78.4544h -6.80315" fill="none" stroke="black"/>
<path d="M70.7992,66.3592h -13.6063" fill="none" stroke="black"/>
<path d="M70.7992,66.3592h -13.6063" fill="none" stroke="black"/>
<text xml:space="preserve" x="44.2563" y="495.587" fill="black" font-size="17.9711" font-family="Helvetica">0</text>
<text xml:space="preserve" x="24.2806" y="435.66" fill="black" font-size="17.9711" font-family="Helvetica">100</text>
<text xml:space="preserve" x="24.2806" y="374.782" fill="black" font-size="17.9711" font-family="Helvetica">200</text>
<text xml:space="preserve" x="24.2806" y="314.855" fill="black" font-size="17.9711" font-family="Helvetica">300</text>
<text xml:space="preserve" x="24.2806" y="253.977" fill="black" font-size="17.9711" font-family="Helvetica">400</text>
<text xml:space="preserve" x="24.2806" y="193.098" fill="black" font-size="17.9711" font-family="Helvetica">500</text>
<text xml:space="preserve" x="24.2806" y="133.171" fill="black" font-size="17.9711" font-family="Helvetica">600</text>
<text xml:space="preserve" x="24.2806" y="72.293" fill="black" font-size="17.9711" font-family="Helvetica">700</text>
<text xml:space="preserve" x="87.0613" y="42.8051" fill="black" font-size="12.1474" font-family="Helvetica">3</text>
<text xml:space="preserve" x="67.0856" y="52.3173" fill="black" font-size="17.9711" font-family="Helvetica">10</text>
<text xml:space="preserve" x="56.6222" y="52.3173" fill="black" font-size="17.9711" font-family="Times">&#0215;</text>
<g transform="rotate(-90,25.2318,132.22)">
<text xml:space="preserve" x="25.2318" y="132.22" fill="black" font-size="17.9711" font-family="Helvetica">## events</text>
</g>
<rect x="442.705" y="35.3665" width="113.386" height="87.056" fill="white"/>
<path d="M442.705,122.422h 113.386" fill="none" stroke="black"/>
<path d="M556.091,122.422v -87.056" fill="none" stroke="black"/>
<path d="M556.091,35.3665h -113.386" fill="none" stroke="black"/>
<path d="M442.705,35.3665v 87.056" fill="none" stroke="black"/>
<text xml:space="preserve" x="447.575" y="48.5124" fill="black" font-size="9.95648" font-family="Helvetica">objectQualityDistribution</text>
<path d="M442.705,57.1305h 113.386" fill="none" stroke="black"/>
<text xml:space="preserve" x="447.575" y="72.293" fill="black" font-size="12.2312" font-family="Helvetica">Entries </text>
<text xml:space="preserve" x="505.6" y="72.293" fill="black" font-size="12.2312" font-family="Helvetica"> 729833</text>
<text xml:space="preserve" x="447.575" y="94.1711" fill="black" font-size="12.2312" font-family="Helvetica">Mean  </text>
<text xml:space="preserve" x="512.258" y="94.1711" fill="black" font-size="12.2312" font-family="Helvetica">  11.75</text>
<text xml:space="preserve" x="447.575" y="116.049" fill="black" font-size="12.2312" font-family="Helvetica">Std Dev   </text>
<text xml:space="preserve" x="509.405" y="116.049" fill="black" font-size="12.2312" font-family="Helvetica"> 0.9639</text>
<text xml:space="preserve" x="299.184" y="33.2928" fill="black" font-size="29.3119" font-family="Helvetica"> distribution</text>
<text xml:space="preserve" x="209.769" y="19.0245" fill="black" font-size="19.7079" font-family="Helvetica">L1T Muon</text>
<text xml:space="preserve" x="118.452" y="33.2928" fill="black" font-size="29.3119" font-family="Helvetica">Quality</text></svg>
